<svg width="18" height="20" viewBox="0 0 18 20" fill="none" xmlns="http://www.w3.org/2000/svg">
<path d="M17.25 8.4999C17.25 10.6187 16.5094 12.5499 15.1688 13.9468C13.8281 15.3436 12.2063 15.9999 10.5 15.9999C8.79375 15.9999 7.70625 15.4468 6.99375 14.8749L5.98125 19.1686C5.94156 19.3332 5.84805 19.4797 5.71557 19.585C5.58309 19.6903 5.41923 19.7483 5.25 19.7499L5.08125 19.7311C4.98519 19.709 4.89443 19.6682 4.81416 19.611C4.73389 19.5538 4.66568 19.4813 4.61344 19.3977C4.5612 19.3142 4.52595 19.2211 4.5097 19.1239C4.49345 19.0267 4.49653 18.9272 4.51875 18.8311L7.51875 6.08115C7.56351 5.88721 7.68347 5.719 7.85225 5.61351C8.02104 5.50802 8.22481 5.4739 8.41875 5.51865C8.61269 5.56341 8.78091 5.68337 8.8864 5.85216C8.99189 6.02094 9.02601 6.22471 8.98125 6.41865L7.39688 13.1499C7.6875 13.5624 8.55938 14.4999 10.5 14.4999C13.0781 14.4999 15.75 12.2593 15.75 8.4999C15.75 7.44541 15.5029 6.40559 15.0286 5.4638C14.5543 4.52201 13.8659 3.70444 13.0187 3.07663C12.1715 2.44883 11.1889 2.02825 10.1499 1.84862C9.11078 1.66899 8.04408 1.7353 7.03525 2.04224C6.02642 2.34917 5.10353 2.88819 4.34057 3.61609C3.57761 4.34399 2.9958 5.24052 2.64178 6.2338C2.28776 7.22709 2.17137 8.2895 2.30196 9.33587C2.43255 10.3822 2.80647 11.3835 3.39375 12.2593C3.44856 12.3411 3.4867 12.433 3.50599 12.5296C3.52529 12.6262 3.52536 12.7257 3.50621 12.8223C3.48705 12.919 3.44905 13.0109 3.39436 13.0928C3.33968 13.1748 3.26939 13.2451 3.1875 13.2999C3.10605 13.3559 3.0142 13.3951 2.91736 13.4151C2.82053 13.4351 2.72068 13.4355 2.62369 13.4163C2.5267 13.397 2.43455 13.3586 2.35266 13.3032C2.27076 13.2478 2.2008 13.1765 2.14688 13.0936C1.42939 12.0231 0.972662 10.7994 0.813312 9.52059C0.653963 8.24176 0.79642 6.94339 1.22927 5.72954C1.66211 4.51568 2.37331 3.42011 3.30585 2.53064C4.23839 1.64117 5.36633 0.982526 6.59928 0.607514C7.83223 0.232502 9.13589 0.151547 10.4058 0.371138C11.6756 0.590729 12.8764 1.10476 13.9118 1.87203C14.9472 2.63929 15.7885 3.63846 16.3682 4.78943C16.9479 5.94041 17.2499 7.21118 17.25 8.4999Z" fill="#FFF6ED"/>
</svg>
