<svg width="20" height="20" viewBox="0 0 20 20" fill="none" xmlns="http://www.w3.org/2000/svg">
<path d="M18.7117 11.5609C18.8078 11.0336 18.8594 10.4945 18.8594 9.95547C18.8594 8.76016 18.625 7.6 18.1633 6.51016C17.718 5.45547 17.0782 4.50859 16.2649 3.69531C15.4584 2.88677 14.5024 2.24279 13.45 1.79922C12.3578 1.3375 11.2 1.10312 10.0047 1.10312C9.44221 1.10312 8.87737 1.15703 8.32893 1.2625C7.57005 0.860367 6.72448 0.649577 5.86564 0.648438C4.46642 0.648438 3.14924 1.19453 2.16017 2.18359C1.67212 2.66914 1.28515 3.24662 1.02165 3.88265C0.758147 4.51867 0.623338 5.20062 0.625015 5.88906C0.625015 6.77969 0.854703 7.65625 1.28361 8.42969C1.19689 8.93125 1.15002 9.44453 1.15002 9.95547C1.15002 11.1508 1.38439 12.3109 1.84611 13.4008C2.29142 14.4555 2.92892 15.4023 3.74221 16.2156C4.55549 17.0289 5.50236 17.6664 6.55705 18.1117C7.64924 18.5734 8.80705 18.8078 10.0024 18.8078C10.5227 18.8078 11.043 18.7609 11.5539 18.6695C12.3391 19.1125 13.225 19.3492 14.1321 19.3492C15.5313 19.3492 16.8485 18.8055 17.8375 17.8141C18.8289 16.825 19.3727 15.5078 19.3727 14.1086C19.375 13.218 19.1453 12.3391 18.7117 11.5609ZM16.6469 16.6234C15.9742 17.2984 15.086 17.6641 14.1344 17.6641C13.5227 17.6641 12.9203 17.5047 12.386 17.2023L11.8586 16.9047L11.261 17.0102C10.8438 17.0852 10.4219 17.1227 10.0047 17.1227C9.0344 17.1227 8.09924 16.9328 7.2133 16.5578C6.36252 16.1992 5.59611 15.6836 4.93517 15.0227C4.28091 14.3706 3.75953 13.5977 3.40002 12.7469C3.02502 11.8633 2.83752 10.9281 2.83752 9.95781C2.83752 9.55 2.87502 9.13281 2.94533 8.72031L3.04845 8.13203L2.75783 7.60938C2.4647 7.08335 2.31062 6.49124 2.31017 5.88906C2.31017 4.9375 2.67814 4.04922 3.3508 3.37656C4.0258 2.70391 4.91408 2.33594 5.86564 2.33594C6.44929 2.33751 7.02372 2.48153 7.53908 2.75547L8.06408 3.03203L8.64533 2.91953C9.0883 2.83516 9.54533 2.79063 10.0047 2.79063C10.975 2.79063 11.9102 2.98047 12.7938 3.35313C13.6492 3.71406 14.4133 4.22969 15.0719 4.88828C15.7328 5.54688 16.2485 6.31328 16.6094 7.16641C16.9844 8.05 17.1719 8.98516 17.1719 9.95547C17.1719 10.3867 17.1321 10.8227 17.0524 11.2563L16.9422 11.8539L17.2375 12.3836C17.5328 12.9109 17.6875 13.5086 17.6875 14.1109C17.6875 15.0648 17.3196 15.9508 16.6469 16.6234ZM11.6735 8.92656L9.60158 8.46719C8.81408 8.28672 7.90705 8.05 7.90705 7.30703C7.90705 6.56406 8.54221 6.04375 9.69065 6.04375C12.0039 6.04375 11.793 7.63281 12.9414 7.63281C13.5461 7.63281 14.0758 7.27656 14.0758 6.66719C14.0758 5.24219 11.793 4.17109 9.85705 4.17109C7.75471 4.17109 5.51643 5.06406 5.51643 7.44063C5.51643 8.58438 5.92424 9.80313 8.17893 10.368L10.9774 11.0664C11.8235 11.275 12.0367 11.7508 12.0367 12.182C12.0367 12.8969 11.3266 13.5953 10.0399 13.5953C7.52736 13.5953 7.87658 11.6617 6.53127 11.6617C5.92658 11.6617 5.4883 12.0789 5.4883 12.6719C5.4883 13.8297 6.89455 15.3766 10.0399 15.3766C13.0328 15.3766 14.5164 13.9352 14.5164 12.0016C14.5164 10.757 13.9422 9.43281 11.6735 8.92656Z" fill="#FFF6ED"/>
</svg>
