<svg width="24" height="24" viewBox="0 0 24 24" fill="none" xmlns="http://www.w3.org/2000/svg">
<g clip-path="url(#clip0_678_2490)">
<path d="M16.0407 3.71914C17.28 3.71914 18.399 4.22624 19.1872 5.04036C20.1678 4.85061 21.0922 4.50486 21.9229 4.02599C21.6015 5.00176 20.9179 5.82036 20.0288 6.33823C20.8988 6.23586 21.7316 6.01236 22.5045 5.67824C21.9251 6.51599 21.1958 7.25361 20.3535 7.84311C20.3614 8.02198 20.3659 8.20273 20.3659 8.38271C20.3659 13.9076 16.0298 20.2799 8.10078 20.2799C5.66703 20.2799 3.40015 19.5855 1.49367 18.3997C1.83474 18.4394 2.17782 18.4591 2.52117 18.4589C4.54055 18.4589 6.40015 17.7911 7.87578 16.6683C5.9884 16.6361 4.3954 15.4259 3.84903 13.7658C4.11662 13.8159 4.38828 13.8412 4.66053 13.8412C5.0524 13.8412 5.43415 13.7906 5.7949 13.6946C3.82315 13.3117 2.33703 11.6216 2.33703 9.59464V9.54104C2.91865 9.85454 3.58278 10.0428 4.2904 10.0645C3.13315 9.31376 2.37228 8.03579 2.37228 6.58489C2.37228 5.81802 2.5853 5.09952 2.95617 4.48414C5.08168 7.01239 8.25793 8.67739 11.8411 8.85251C11.7672 8.54724 11.7289 8.22476 11.7289 7.90039C11.7289 5.59077 13.659 3.71914 16.0407 3.71914ZM22.5045 5.67901H22.5082H22.5045ZM16.0406 2.21924C13.0953 2.21924 10.6553 4.37101 10.2795 7.15126C7.86975 6.66713 5.67825 5.39138 4.10363 3.51976C3.96286 3.35231 3.78718 3.21768 3.58888 3.12531C3.39058 3.03294 3.17448 2.98506 2.95573 2.98503C2.91644 2.98504 2.87717 2.98655 2.838 2.98953C2.60024 3.00858 2.37042 3.08394 2.16756 3.2094C1.9647 3.33486 1.79462 3.50681 1.67138 3.71103C1.14843 4.57874 0.872126 5.57267 0.872229 6.58578C0.872229 7.26191 0.993706 7.9204 1.22398 8.53615C0.978729 8.80878 0.837354 9.16541 0.837354 9.5419V9.59553C0.837354 11.0648 1.41823 12.4283 2.38273 13.4502C2.32723 13.7074 2.3396 13.9767 2.42435 14.2346C2.757 15.2468 3.36263 16.119 4.14788 16.7835C3.6206 16.9009 3.0765 16.9601 2.5211 16.9601C2.22748 16.9601 1.94173 16.944 1.67135 16.911C1.61135 16.9035 1.5521 16.9009 1.49248 16.9009C0.862479 16.9009 0.290604 17.298 0.0783537 17.9036C-0.154521 18.5674 0.103877 19.3031 0.700854 19.6747C2.91638 21.0532 5.47536 21.7811 8.10036 21.7811C16.6324 21.7811 21.7646 15.102 21.8644 8.57773C22.5645 7.9985 23.183 7.32715 23.703 6.58198C23.9005 6.32269 24.0072 6.00566 24.0067 5.67974C24.0067 5.16936 23.7514 4.71824 23.3625 4.44709C23.5309 3.86996 23.3389 3.24521 22.8701 2.86346C22.5964 2.64071 22.2607 2.52746 21.9232 2.52746C21.6602 2.52722 21.4017 2.59642 21.174 2.72809C20.6782 3.01386 20.148 3.23999 19.5896 3.40276C18.5793 2.64264 17.3268 2.21926 16.0406 2.21924Z" fill="#FFF6ED"/>
</g>
<defs>
<clipPath id="clip0_678_2490">
<rect width="24" height="24" fill="white"/>
</clipPath>
</defs>
</svg>
