<svg width="24" height="24" viewBox="0 0 24 24" fill="none" xmlns="http://www.w3.org/2000/svg">
<path d="M2.93575 4.20229L2.96785 4.18223L7.0269 2.1825L11.408 8.02392L9.39236 10.7116C9.45267 11.7252 9.88251 12.6815 10.6005 13.3995C11.3185 14.1174 12.2748 14.5473 13.2884 14.6076L15.976 12.5919L21.8174 16.9729L19.8343 20.998L19.8176 21.032L19.7975 21.0641C19.6917 21.2346 19.544 21.3752 19.3684 21.4725C19.1929 21.5698 18.9954 21.6205 18.7947 21.6199H17.7473C15.7292 21.6199 13.7309 21.2224 11.8665 20.4501C10.002 19.6778 8.30795 18.5459 6.88096 17.1189C5.45397 15.6919 4.32203 13.9978 3.54975 12.1333C2.77747 10.2689 2.37999 8.27058 2.37999 6.25251V5.20509C2.37935 5.00441 2.43009 4.8069 2.52736 4.63137C2.62465 4.45583 2.76523 4.30812 2.93575 4.20229ZM3.88 6.25251C3.88 13.899 10.1009 20.1199 17.7473 20.1199H18.5948L19.9217 17.4263L15.9757 14.4668L13.7788 16.1145H13.5288C12.0325 16.1128 10.598 15.5176 9.53996 14.4596C8.48191 13.4015 7.88677 11.967 7.88509 10.4707V10.2207L9.5327 8.02387L6.57358 4.07817L3.88 5.40525V6.25251Z" fill="#696969"/>
</svg>
